<svg xmlns="http://www.w3.org/2000/svg" xmlns:xlink="http://www.w3.org/1999/xlink" width="1021" height="1267" viewBox="0 0 1021 1267"><defs><clipPath id="clip-path"><rect width="1021" height="1267" fill="none"/></clipPath><linearGradient id="linear-gradient" x1="1.168" x2="-1.054" y1="-.736" y2="1.151" gradientUnits="objectBoundingBox"><stop offset="0" stop-color="#ff296c"/><stop offset="1" stop-color="#ff9f2b"/></linearGradient><linearGradient id="linear-gradient-2" x1="1.175" x2=".089" y1=".086" y2=".92" xlink:href="#linear-gradient"/></defs><g id="반복_그리드_1" clip-path="url(#clip-path)" data-name="반복 그리드 1"><g id="그룹_74" data-name="그룹 74" transform="translate(-909 96)"><path id="패스_1" fill="url(#linear-gradient)" d="M1833.342,1022.532c-71.359,59.149-172.625,60.839-237.087,54.149-21.535-2.253-33.217-20.42-21.464-33.024,31.386-33.447,49.894-67.881,55.384-103.018,5.841-37.108-3.167-74.358-26.813-110.622a293.323,293.323,0,0,0-53.131-59.5,16.555,16.555,0,0,1-1.548-25.7,900.087,900.087,0,0,0,140.746-171.742q8.022-12.956,15.2-25.983a23.5,23.5,0,0,1,14.568-10.562c45.953-12.6,113.652-19.858,174.243,17.885,104.082,64.782-45.391,176.039-45.391,176.039s172.2,30.912-24.842,180.9C1823.278,911.346,1945.8,929.372,1833.342,1022.532Z" data-name="패스 1" transform="translate(-0.288 -0.372)"/><path id="패스_2" fill="url(#linear-gradient-2)" d="M1477.04,771.361c-6.333-4.364-13.019-8.869-20.127-13.3,0,0,438.285-342.352,164.673-636.771A661.488,661.488,0,0,0,1308-66.429,869.583,869.583,0,0,0,990.057-90.5c-32.161,3.519-56.3,21.748-59.888,45.4-72.133,480.235,53.624,874.178,233.217,1179.366,18.649,31.673,69.951,46.243,109.571,31.04,78.044-29.914,197.891-84.11,261.93-154.284C1596.464,943.451,1606.175,861.171,1477.04,771.361ZM1464.8,526.422c-32.442,34.277-82.829,51.1-134.694,45.046-4.082-.493-8.234-1.056-12.316-1.83a160.235,160.235,0,0,1-94.44-53.7,119.662,119.662,0,0,1-28.149-91.5h0a20.41,20.41,0,0,1,12.244-15.555,39.75,39.75,0,0,1,20.2-3.66l4.855.633a35.608,35.608,0,0,1,21.816,11.965c15.9,20.623,49.262,41.246,88.67,55.041a309.756,309.756,0,0,0,44.9,12.036,244.459,244.459,0,0,0,47.924,4.434,45.842,45.842,0,0,1,8.8.7,33.426,33.426,0,0,1,23.223,14.851A17.458,17.458,0,0,1,1464.8,526.422Z" data-name="패스 2" transform="translate(-0.477 -0.357)"/></g></g></svg>